<svg width="28" height="28" viewBox="0 0 28 28" fill="none" xmlns="http://www.w3.org/2000/svg">
<path d="M22.1667 6.99996H19.8333C19.8333 3.73329 17.2667 1.16663 14 1.16663C10.7333 1.16663 8.16667 3.73329 8.16667 6.99996H5.83333C4.55 6.99996 3.5 8.04996 3.5 9.33329V23.3333C3.5 24.6166 4.55 25.6666 5.83333 25.6666H22.1667C23.45 25.6666 24.5 24.6166 24.5 23.3333V9.33329C24.5 8.04996 23.45 6.99996 22.1667 6.99996ZM14 3.49996C15.9833 3.49996 17.5 5.01663 17.5 6.99996H10.5C10.5 5.01663 12.0167 3.49996 14 3.49996ZM22.1667 23.3333H5.83333V9.33329H22.1667V23.3333ZM14 14C12.0167 14 10.5 12.4833 10.5 10.5H8.16667C8.16667 13.7666 10.7333 16.3333 14 16.3333C17.2667 16.3333 19.8333 13.7666 19.8333 10.5H17.5C17.5 12.4833 15.9833 14 14 14Z" fill="#808080"/>
</svg>
